<svg width="2500" height="2500" viewBox="0 0 2500 2500" fill="none" xmlns="http://www.w3.org/2000/svg">
<g clip-path="url(#clip0)">
<path fill-rule="evenodd" clip-rule="evenodd" d="M312.5 0H2187.5C2360.09 0 2500 139.911 2500 312.5V2187.5C2500 2360.09 2360.09 2500 2187.5 2500H312.5C139.911 2500 0 2360.09 0 2187.5V312.5C0 139.911 139.911 0 312.5 0ZM2060.13 1686.8C2010.87 1647.14 1958.81 1610.84 1906.83 1574.6L1906.79 1574.57C1895.94 1567.01 1885.09 1559.44 1874.27 1551.85C1749.32 1464.09 1635.03 1457.27 1541.8 1598.46C1489.44 1677.73 1416.14 1681.2 1339.5 1646.43C1128.22 1550.63 965.073 1403.02 869.507 1188.27C827.231 1093.26 827.788 1008.08 926.699 940.884C979.067 905.347 1031.83 863.296 1027.61 785.645C1022.1 684.395 776.264 346.031 679.184 310.318C639.013 295.537 599.009 296.499 558.139 310.235C330.503 386.787 236.216 573.999 326.513 795.669C595.898 1457.01 1069.97 1917.41 1722.56 2198.41C1749.69 2210.08 1779.01 2216.64 1801.01 2221.56C1809.19 2223.39 1816.36 2225 1822.03 2226.55C1970.6 2228.05 2144.65 2084.9 2194.91 1942.84C2237.45 1822.72 2163.58 1766.27 2090.15 1710.14C2080.03 1702.41 2069.92 1694.69 2060.13 1686.8ZM1328.42 378.12C1805.5 451.485 2025.53 678.34 2086.28 1158.86C2087.51 1168.52 2087.68 1179.25 2087.86 1190.14C2088.5 1229.22 2089.17 1270.3 2138.71 1271.26C2194.02 1272.32 2191.96 1226.53 2190.12 1185.52C2189.76 1177.46 2189.41 1169.59 2189.5 1162.3C2195.09 709.737 1800.49 290.196 1342.21 274.727C1334.08 275.897 1323.91 275.199 1313.05 274.453C1277.71 272.028 1235.04 269.101 1231.63 328.379C1229.25 370.272 1267.5 373.055 1303.13 375.646C1311.94 376.287 1320.59 376.916 1328.42 378.12ZM1421.74 509.873C1414.83 509.041 1407.58 507.843 1400.22 506.627C1358.73 499.768 1313.65 492.316 1304.55 546.397C1295.48 600.526 1338.05 606.361 1377.61 611.784C1386.89 613.057 1396.01 614.307 1404.25 616.153C1698.91 682.007 1801.51 789.253 1850.02 1081.54C1851.43 1090 1852 1099.4 1852.59 1108.95C1854.93 1147.45 1857.42 1188.29 1915.45 1179.48C1956.01 1173.3 1954.84 1139.32 1953.79 1108.75V1108.75V1108.75V1108.75C1953.45 1098.87 1953.12 1089.36 1954.22 1081.25C1956.6 800.635 1716.14 545.225 1421.74 509.873ZM1376.84 776.143C1388.1 743.408 1418.16 740.093 1448.79 739.336C1579.41 736.094 1732.47 892.617 1730.31 1028.04C1731.65 1065.05 1727.69 1104.03 1683.9 1109.26C1652.29 1112.99 1631.53 1086.48 1628.27 1053.76C1616.2 933.228 1552.58 861.953 1431.71 842.549C1395.5 836.734 1359.93 825.069 1376.84 776.143Z" fill="white"/>
</g>
<defs>
<clipPath id="clip0">
<rect width="2500" height="2500" fill="white"/>
</clipPath>
</defs>
</svg>
